<svg width="142" height="119" viewBox="0 0 142 119" fill="none" xmlns="http://www.w3.org/2000/svg">
<path fill-rule="evenodd" clip-rule="evenodd" d="M47.5625 90.125H37.4281L34.2219 99.7437L32.7406 104.187H14.75V76.25C19.4 77.4594 26.1219 78.4062 35.8438 78.4062C37.7086 78.4062 39.497 77.6654 40.8156 76.3468C42.1342 75.0282 42.875 73.2398 42.875 71.375C42.875 69.5102 42.1342 67.7218 40.8156 66.4031C39.497 65.0845 37.7086 64.3437 35.8438 64.3437C25.7844 64.3437 20.075 63.2187 17.1125 62.3094C16.4627 62.1098 15.8243 61.8751 15.2 61.6062C15.9182 58.5139 17.4942 55.6869 19.7469 53.45C20.4344 52.7625 21.1031 52.05 21.7531 51.3125C36.05 55.3719 53.6562 57.3125 71 57.3125C88.3438 57.3125 105.95 55.3719 120.247 51.3125C120.891 52.0562 121.559 52.7687 122.253 53.45C124.512 55.7187 126.078 58.55 126.8 61.6062C126.387 61.8062 125.75 62.0406 124.888 62.3094C121.925 63.2187 116.216 64.3437 106.156 64.3437C104.291 64.3437 102.503 65.0845 101.184 66.4031C99.8658 67.7218 99.125 69.5102 99.125 71.375C99.125 73.2398 99.8658 75.0282 101.184 76.3468C102.503 77.6654 104.291 78.4062 106.156 78.4062C115.878 78.4062 122.6 77.4594 127.25 76.25V104.187H109.259L107.778 99.7437L104.572 90.125H47.5625ZM112.475 38.825C100.475 41.7312 85.85 43.25 71 43.25C56.15 43.25 41.525 41.7312 29.525 38.825C29.8125 38.125 30.0875 37.4187 30.35 36.7062L34.55 24.9219C36.2375 20.1875 39.8937 17.3656 43.55 16.8312C61.7554 14.2432 80.2353 14.2432 98.4406 16.8312C102.116 17.3656 105.753 20.1875 107.441 24.9219L111.659 36.7062C111.909 37.4187 112.181 38.125 112.475 38.825ZM96.9875 111.837L94.4375 104.187H47.5625L45.0125 111.837C44.3905 113.705 43.1964 115.329 41.5995 116.48C40.0027 117.631 38.084 118.25 36.1156 118.25H10.0625C7.5761 118.25 5.19153 117.262 3.43337 115.504C1.67522 113.746 0.6875 111.361 0.6875 108.875V65.5156C0.6875 57.2656 3.96875 49.3437 9.8 43.5125C11.3108 42.0059 12.6618 40.3471 13.8312 38.5625H7.71875C5.85395 38.5625 4.06552 37.8217 2.74691 36.5031C1.42829 35.1845 0.6875 33.396 0.6875 31.5312C0.6875 29.6664 1.42829 27.878 2.74691 26.5594C4.06552 25.2408 5.85395 24.5 7.71875 24.5H19.775L21.3125 20.1875C24.5281 11.1875 32.075 4.28748 41.5344 2.91873C61.0796 0.13622 80.9204 0.13622 100.466 2.91873C109.925 4.28748 117.472 11.1875 120.688 20.1969L122.225 24.5H134.281C136.146 24.5 137.934 25.2408 139.253 26.5594C140.572 27.878 141.312 29.6664 141.312 31.5312C141.312 33.396 140.572 35.1845 139.253 36.5031C137.934 37.8217 136.146 38.5625 134.281 38.5625H128.178C129.347 40.35 130.688 42 132.2 43.5125C138.034 49.3488 141.312 57.2632 141.312 65.5156V108.875C141.312 111.361 140.325 113.746 138.567 115.504C136.808 117.262 134.424 118.25 131.938 118.25H105.875C103.908 118.248 101.992 117.628 100.397 116.478C98.8017 115.327 97.609 113.704 96.9875 111.837Z" fill="#6B6B6B"/>
</svg>
