<svg width="141" height="100" viewBox="0 0 141 100" fill="none" xmlns="http://www.w3.org/2000/svg">
<path d="M40.75 100C35.5417 100 31.1146 98.1771 27.4688 94.5312C23.8229 90.8854 22 86.4583 22 81.25H6.375L9.1875 68.75H26.8438C28.6146 66.7708 30.6979 65.2354 33.0938 64.1437C35.4896 63.0521 38.0417 62.5042 40.75 62.5C43.4583 62.4958 46.0104 63.0437 48.4063 64.1437C50.8021 65.2437 52.8854 66.7792 54.6563 68.75H80.75L93.875 12.5H25.4375L26.0625 9.84375C26.6875 6.92708 28.1187 4.55833 30.3562 2.7375C32.5938 0.916668 35.225 0.00416667 38.25 0H109.5L103.719 25H122L140.75 50L134.5 81.25H122C122 86.4583 120.177 90.8854 116.531 94.5312C112.885 98.1771 108.458 100 103.25 100C98.0417 100 93.6146 98.1771 89.9688 94.5312C86.3229 90.8854 84.5 86.4583 84.5 81.25H59.5C59.5 86.4583 57.6771 90.8854 54.0312 94.5312C50.3854 98.1771 45.9583 100 40.75 100ZM96.5312 56.25H126.688L127.312 52.9688L115.75 37.5H100.906L96.5312 56.25ZM93.5625 13.5938L93.875 12.5L80.75 68.75L81.0625 67.6562L86.375 44.8438L93.5625 13.5938ZM0.125 58.2812L3.25 45.7812H37.625L34.5 58.2812H0.125ZM12.625 35.4688L15.75 22.9688H56.375L53.25 35.4688H12.625ZM40.75 87.5C42.5208 87.5 44.0062 86.9 45.2062 85.7C46.4062 84.5 47.0042 83.0167 47 81.25C46.9958 79.4833 46.3958 78 45.2 76.8C44.0042 75.6 42.5208 75 40.75 75C38.9792 75 37.4958 75.6 36.3 76.8C35.1042 78 34.5042 79.4833 34.5 81.25C34.4958 83.0167 35.0958 84.5021 36.3 85.7062C37.5042 86.9104 38.9875 87.5083 40.75 87.5ZM103.25 87.5C105.021 87.5 106.506 86.9 107.706 85.7C108.906 84.5 109.504 83.0167 109.5 81.25C109.496 79.4833 108.896 78 107.7 76.8C106.504 75.6 105.021 75 103.25 75C101.479 75 99.9958 75.6 98.8 76.8C97.6042 78 97.0042 79.4833 97 81.25C96.9958 83.0167 97.5958 84.5021 98.8 85.7062C100.004 86.9104 101.488 87.5083 103.25 87.5Z" fill="#6B6B6B"/>
</svg>
