<svg width="132" height="137" viewBox="0 0 132 137" fill="none" xmlns="http://www.w3.org/2000/svg">
<path fill-rule="evenodd" clip-rule="evenodd" d="M19.1531 35.0812L58.7156 16.0969C60.9898 15.0086 63.4789 14.4437 66 14.4437C68.5211 14.4437 71.0102 15.0086 73.2844 16.0969L112.847 35.0812C114.258 35.7625 115.448 36.8273 116.282 38.1537C117.116 39.4801 117.56 41.0145 117.562 42.5812V47.25C117.562 60.6988 114.177 73.9312 107.721 85.7287C101.264 97.5263 91.9431 107.51 80.6156 114.759L71.3719 120.675C69.7694 121.705 67.9048 122.252 66 122.252C64.0952 122.252 62.2306 121.705 60.6281 120.675L51.3844 114.769C40.0556 107.518 30.7335 97.5333 24.2769 85.734C17.8202 73.9347 14.4365 60.7003 14.4375 47.25V42.5812C14.4375 39.3844 16.275 36.4687 19.1531 35.0812ZM52.6219 3.42186L13.0688 22.4062C9.26895 24.234 6.062 27.0968 3.81651 30.6657C1.57103 34.2346 0.378156 38.3647 0.375 42.5812V47.25C0.374215 63.0589 4.35133 78.6139 11.9401 92.4823C19.5288 106.351 30.4851 118.087 43.8 126.609L53.0438 132.516C56.9101 134.995 61.4068 136.313 66 136.313C70.5932 136.313 75.0899 134.995 78.9563 132.516L88.2 126.609C101.515 118.087 112.471 106.351 120.06 92.4823C127.649 78.6139 131.626 63.0589 131.625 47.25V42.5812C131.625 33.975 126.694 26.1281 118.931 22.4062L79.3687 3.42186C75.1957 1.42229 70.6273 0.384277 66 0.384277C61.3727 0.384277 56.7949 1.42229 52.6219 3.42186ZM70.4062 84.4687C69.7154 85.1124 69.1614 85.8887 68.7771 86.7512C68.3928 87.6137 68.1861 88.5448 68.1694 89.4888C68.1528 90.4329 68.3265 91.3707 68.6801 92.2462C69.0337 93.1217 69.5601 93.917 70.2278 94.5847C70.8954 95.2524 71.6908 95.7788 72.5663 96.1324C73.4418 96.486 74.3796 96.6597 75.3236 96.643C76.2677 96.6264 77.1988 96.4197 78.0613 96.0354C78.9238 95.6511 79.7 95.097 80.3438 94.4062C85.7344 89.025 90.825 81.3 94.5562 73.8281C98.175 66.5906 101.156 58.3312 101.156 51.9375C101.156 50.0727 100.415 48.2843 99.0968 46.9656C97.7782 45.647 95.9898 44.9062 94.125 44.9062C92.2602 44.9062 90.4718 45.647 89.1532 46.9656C87.8345 48.2843 87.0938 50.0727 87.0938 51.9375C87.0938 54.9187 85.3875 60.7219 81.975 67.5469C78.675 74.1375 74.3906 80.475 70.4062 84.4687Z" fill="#6B6B6B"/>
</svg>
