<svg width="126" height="126" viewBox="0 0 126 126" fill="none" xmlns="http://www.w3.org/2000/svg">
<path d="M63 0.5C97.5187 0.5 125.5 28.4813 125.5 63C125.5 97.5187 97.5187 125.5 63 125.5C28.4813 125.5 0.5 97.5187 0.5 63C0.5 28.4813 28.4813 0.5 63 0.5ZM63 13C49.7392 13 37.0215 18.2678 27.6447 27.6447C18.2678 37.0215 13 49.7392 13 63C13 76.2608 18.2678 88.9785 27.6447 98.3553C37.0215 107.732 49.7392 113 63 113C76.2608 113 88.9785 107.732 98.3553 98.3553C107.732 88.9785 113 76.2608 113 63C113 49.7392 107.732 37.0215 98.3553 27.6447C88.9785 18.2678 76.2608 13 63 13ZM63 25.5C64.5308 25.5002 66.0084 26.0622 67.1523 27.0795C68.2963 28.0967 69.0271 29.4984 69.2063 31.0187L69.25 31.75V60.4125L86.1687 77.3313C87.2897 78.456 87.9405 79.9652 87.9889 81.5524C88.0374 83.1396 87.4799 84.6857 86.4297 85.8767C85.3795 87.0678 83.9153 87.8144 82.3345 87.965C80.7538 88.1156 79.1749 87.6588 77.9187 86.6875L77.3313 86.1687L58.5813 67.4187C57.6099 66.4465 56.986 65.1813 56.8062 63.8187L56.75 63V31.75C56.75 30.0924 57.4085 28.5027 58.5806 27.3306C59.7527 26.1585 61.3424 25.5 63 25.5Z" fill="#6B6B6B"/>
</svg>
