<svg xmlns="http://www.w3.org/2000/svg" fill="none">

    <symbol id="icon-Audi" width="86" height="30" viewBox="0 0 86 30">
        <path d="M70.9919 0.698755C67.4907 0.698755 64.2789 1.92699 61.7589 3.97404C59.1513 1.84978 55.8894 0.692626 52.526 0.698755C49.0248 0.698755 45.8131 1.92699 43.2931 3.97404C40.6855 1.84978 37.4235 0.692626 34.0602 0.698755C30.559 0.698755 27.3472 1.92699 24.8272 3.97404C22.6771 2.22921 20.0766 1.12928 17.327 0.801674C14.5774 0.474072 11.7913 0.93221 9.29141 2.12301C6.79151 3.31381 4.68016 5.18854 3.20196 7.53C1.72376 9.87146 0.939209 12.5838 0.939209 15.3528C0.939209 18.1219 1.72376 20.8342 3.20196 23.1757C4.68016 25.5172 6.79151 27.3919 9.29141 28.5827C11.7913 29.7735 14.5774 30.2316 17.327 29.904C20.0766 29.5764 22.6771 28.4765 24.8272 26.7317C27.3472 28.7787 30.559 30.0069 34.0602 30.0069C37.5613 30.0069 40.7731 28.7787 43.2931 26.7317C45.8131 28.7787 49.0248 30.0069 52.526 30.0069C56.0272 30.0069 59.2389 28.7787 61.7589 26.7317C63.5803 28.2097 65.7299 29.229 68.0271 29.7037C70.3242 30.1784 72.7018 30.0948 74.9598 29.4598C77.2179 28.8248 79.2906 27.657 81.0036 26.0546C82.7166 24.4522 84.02 22.4619 84.804 20.2512C85.5881 18.0404 85.83 15.6738 85.5094 13.3501C85.1889 11.0264 84.3152 8.81366 82.9618 6.8978C81.6084 4.98194 79.8148 3.41897 77.7319 2.34025C75.649 1.26153 73.3375 0.698596 70.9919 0.698755ZM61.7589 21.9387C60.384 20.0181 59.6459 17.7148 59.6483 15.3528C59.6483 12.8964 60.4319 10.6234 61.7589 8.76698C63.086 10.6234 63.8695 12.8964 63.8695 15.3528C63.8695 17.8093 63.086 20.0823 61.7589 21.9387ZM43.2931 21.9387C41.9182 20.0181 41.1801 17.7148 41.1825 15.3528C41.1825 12.8964 41.966 10.6234 43.2931 8.76698C44.6201 10.6234 45.4037 12.8964 45.4037 15.3528C45.4037 17.8093 44.6201 20.0823 43.2931 21.9387ZM24.8272 21.9387C23.4523 20.0181 22.7142 17.7148 22.7166 15.3528C22.7166 12.8964 23.5002 10.6234 24.8272 8.76698C26.1543 10.6234 26.9378 12.8964 26.9378 15.3528C26.9378 17.8093 26.1543 20.0823 24.8272 21.9387ZM4.25079 15.3528C4.25162 13.2362 4.84465 11.162 5.9628 9.36486C7.08096 7.56768 8.67965 6.11919 10.5781 5.18319C12.4765 4.2472 14.599 3.86103 16.7054 4.06836C18.8119 4.27568 20.8183 5.06824 22.4978 6.35639C20.4901 8.92508 19.4016 12.0927 19.4061 15.3528C19.4061 18.7446 20.5637 21.8681 22.4978 24.3493C20.8183 25.6375 18.8119 26.43 16.7054 26.6373C14.599 26.8447 12.4765 26.4585 10.5781 25.5225C8.67965 24.5865 7.08096 23.138 5.9628 21.3408C4.84465 19.5437 4.25162 17.4695 4.25079 15.3528ZM27.1566 24.3493C29.1643 21.7806 30.2529 18.613 30.2484 15.3528C30.2484 11.9611 29.0907 8.83757 27.1566 6.35639C29.135 4.8323 31.5628 4.00691 34.0602 4.00934C36.6578 4.00934 39.0507 4.88463 40.9637 6.35639C38.956 8.92508 37.8674 12.0927 37.8719 15.3528C37.8719 18.7446 39.0296 21.8681 40.9637 24.3493C38.9853 25.8734 36.5575 26.6988 34.0602 26.6964C31.5628 26.6988 29.135 25.8734 27.1566 24.3493ZM45.6225 24.3493C47.6302 21.7806 48.7187 18.613 48.7142 15.3528C48.7142 11.9611 47.5566 8.83757 45.6225 6.35286C47.5354 4.88463 49.9284 4.00581 52.526 4.00581C55.1237 4.00581 57.5166 4.8811 59.4295 6.35286C57.4219 8.92154 56.3333 12.0891 56.3378 15.3493C56.3378 18.7411 57.4954 21.8646 59.4295 24.3458C57.4511 25.8699 55.0234 26.6953 52.526 26.6928C50.029 26.6963 47.6013 25.8721 45.6225 24.3493ZM70.9919 26.6964C68.4945 26.6988 66.0667 25.8734 64.0883 24.3493C66.0936 21.7793 67.1819 18.6126 67.1801 15.3528C67.1801 11.9611 66.0225 8.83757 64.0883 6.35639C65.5184 5.25811 67.1897 4.51655 68.9635 4.19321C70.7374 3.86987 72.5629 3.97407 74.2884 4.49715C76.014 5.02024 77.59 5.94715 78.8858 7.20102C80.1816 8.45489 81.1598 9.9996 81.7393 11.7071C82.3189 13.4145 82.483 15.2355 82.2182 17.0191C81.9533 18.8027 81.2671 20.4974 80.2164 21.9628C79.1657 23.4281 77.7808 24.6219 76.1766 25.4451C74.5723 26.2684 72.795 26.6973 70.9919 26.6964Z" fill="black"/>
    </symbol>

    <symbol id="icon-BMW" width="86" height="85" viewBox="0 0 86 85">
        <path fill-rule="evenodd" clip-rule="evenodd" d="M78.0584 42.3529C78.0584 61.8458 62.2573 77.647 42.7644 77.647C23.2715 77.647 7.47031 61.8458 7.47031 42.3529C7.47031 22.86 23.2715 7.05884 42.7644 7.05884C62.2573 7.05884 78.0584 22.86 78.0584 42.3529ZM77.0137 42.3529C77.0137 23.4353 61.6785 8.10354 42.7644 8.10354C23.8503 8.10354 8.51501 23.4388 8.51501 42.3529C8.51501 61.267 23.8503 76.6023 42.7644 76.6023C61.6785 76.6023 77.0137 61.267 77.0137 42.3529Z" fill="black"/>
        <path d="M23.2644 42.2893C23.264 39.7242 23.7688 37.1842 24.7502 34.8143C25.7316 32.4444 27.1703 30.291 28.9841 28.4773C30.7979 26.6635 32.9512 25.2248 35.3211 24.2434C37.691 23.262 40.2311 22.7571 42.7962 22.7576V61.8175C47.9751 61.8166 52.9416 59.7589 56.6036 56.0968C60.2657 52.4348 62.3234 47.4682 62.3244 42.2893H23.2644ZM25.8797 25.2846L23.2538 28.4187L21.6021 27.0352L24.2527 23.8799C24.5491 23.5235 25.2162 23.4211 25.6644 23.7952C26.1762 24.2188 26.2291 24.8682 25.8797 25.2846ZM22.975 23.1246L20.4832 26.0929L18.9232 24.787L21.4432 21.7799C21.7362 21.4305 22.3962 21.4482 22.8197 21.8046C23.2856 22.1964 23.2856 22.7505 22.975 23.1246Z" fill="black"/>
        <path d="M75.4679 42.2894C75.5128 46.6087 74.7008 50.894 73.0789 54.8975C71.4571 58.9011 69.0575 62.5433 66.019 65.6135C62.9806 68.6837 59.3635 71.121 55.3771 72.7844C51.3906 74.4477 47.1139 75.3042 42.7944 75.3042C38.4748 75.3042 34.1982 74.4477 30.2117 72.7844C26.2253 71.121 22.6082 68.6837 19.5697 65.6135C16.5313 62.5433 14.1317 58.9011 12.5098 54.8975C10.888 50.894 10.076 46.6087 10.1209 42.2894C10.076 37.9701 10.888 33.6847 12.5098 29.6812C14.1317 25.6777 16.5313 22.0355 19.5697 18.9653C22.6082 15.8951 26.2253 13.4578 30.2117 11.7944C34.1982 10.131 38.4748 9.27454 42.7944 9.27454C47.1139 9.27454 51.3906 10.131 55.3771 11.7944C59.3635 13.4578 62.9806 15.8951 66.019 18.9653C69.0575 22.0355 71.4571 25.6777 73.0789 29.6812C74.7008 33.6847 75.5128 37.9701 75.4679 42.2894ZM16.3291 25.5423L22.9291 31.0835L27.3515 25.807C28.3644 24.6 28.5232 23.4035 27.4573 22.3729C27.0974 22.0185 26.6258 21.7995 26.1227 21.7532C25.6196 21.7069 25.116 21.8361 24.6974 22.1188C24.8486 21.7058 24.8524 21.2531 24.7079 20.8376C24.3056 20.0965 24.1432 19.9659 23.8362 19.7082L23.7656 19.6482C22.6115 18.6812 21.3974 19.5071 20.5291 20.5447L16.3291 25.5423ZM46.1561 13.9941V20.0012H47.875V11.4H45.2914L42.9479 17.5271L40.6044 11.4H38.0209V20.0012H39.7432V13.9941L42.0091 20.0012H43.8903L46.1561 13.9941ZM63.7961 28.1682L67.0396 23.5765L65.6102 21.8118L60.4467 24.0282L63.8279 19.6094L62.4973 17.9682L57.0973 24.907L58.6785 26.8412L63.7749 24.7412L63.7926 24.7623L60.6832 29.3153L62.2432 31.2564L70.1526 27.4235L68.822 25.7788L63.7961 28.1682ZM42.7961 63.1623C45.5372 63.1623 48.2514 62.6224 50.7839 61.5734C53.3163 60.5245 55.6173 58.987 57.5555 57.0487C59.4938 55.1105 61.0312 52.8095 62.0802 50.2771C63.1292 47.7447 63.6691 45.0304 63.6691 42.2894C63.6691 39.5483 63.1292 36.8341 62.0802 34.3017C61.0312 31.7692 59.4938 29.4682 57.5555 27.53C55.6173 25.5918 53.3163 24.0543 50.7839 23.0053C48.2514 21.9564 45.5372 21.4165 42.7961 21.4165C37.2603 21.4165 31.9512 23.6156 28.0368 27.53C24.1223 31.4444 21.9232 36.7535 21.9232 42.2894C21.9232 47.8252 24.1223 53.1343 28.0368 57.0487C31.9512 60.9632 37.2603 63.1623 42.7961 63.1623Z" fill="black"/>
    </symbol>

    <symbol id="icon-Cadilac" width="80" height="80" viewBox="0 0 80 80">
        <path d="M13.1287 23.7179H19.2654L18.1046 18.3568H38.9267V23.703H39.6208V16.5077H11.2271L13.1287 23.7179ZM13.7179 30.7865H39.615V25.4254H13.3825L13.7179 30.7865ZM20.295 39.764H14.2867L13.82 32.4493H39.6208V39.764H38.9237V34.1642H20.0763L20.295 39.764ZM29.9171 44.9237H39.6179V48.7637H29.9171V44.9237ZM40.385 16.5077H50.1763V27.2746H40.385V16.5077ZM15.6838 58.032C15.8413 58.6732 16.1358 59.4188 17.1129 60.1272C17.5387 60.4031 18.0025 60.6789 18.615 61.0368L18.8483 61.1785H29.2375V57.3758H15.5467C15.5856 57.6045 15.6303 57.8232 15.6808 58.032H15.6838ZM29.2375 52.2235H15.0888L14.3946 41.4864H29.2375V52.2235ZM29.9142 67.2927C33.5396 69.1792 37.0804 70.9314 39.6238 71.9902V53.9608H29.9142V67.2927ZM65.7192 39.764H50.8442V28.9896H66.3988L65.7192 39.764ZM50.8442 19.9301V23.7552L66.8421 23.7403L67.8454 19.9301H50.8442ZM5 8L9.71333 25.664C10.2296 33.1651 11.58 52.4994 11.7346 54.3709L11.7521 54.6095C12.1838 59.8737 12.4492 63.1023 16.3896 65.5927C21.7125 68.948 33.8808 75.4574 39.9971 78C46.1133 75.4574 58.2875 68.9406 63.6133 65.5927C67.5508 63.1023 67.8133 59.8737 68.2479 54.6095L68.2654 54.3709C68.42 52.4844 69.7704 33.1651 70.2867 25.664L75 8H5ZM67.5742 25.4105L66.7663 38.213C66.2996 45.6246 65.9875 50.5682 65.8329 52.7603L65.8125 53.0213L65.7775 53.5432C65.4071 58.703 65.2438 61.0145 63.1233 62.5281C58.7017 65.3093 45.8917 72.2959 40.0029 74.6521C34.1171 72.2959 21.3071 65.3019 16.8883 62.5281C14.7679 61.0145 14.6046 58.703 14.2342 53.5358L14.1788 52.7603C14.0242 50.6129 13.7238 45.8259 13.2746 38.6679L12.4375 25.4031L8.72167 11.3106H71.2842L67.5742 25.4105ZM41.0792 48.7637H40.385V41.4864H65.6142L65.1475 48.7786H59.3025C59.3929 47.5036 59.565 43.8649 59.5912 43.3355H41.0792V48.7637ZM40.385 55.7876H64.6575L65.0483 50.4489H40.385V55.7876ZM40.385 32.4568H50.1792V36.3042H40.385V32.4568ZM40.385 57.3758V71.9827C46.5538 69.2985 58.5354 62.9979 62.8958 60.1123C63.8817 59.4636 64.1733 58.6732 64.3308 58.032C64.3829 57.8249 64.4269 57.6051 64.4621 57.3758H40.385ZM47.0817 66.9348L45.8713 67.5462C45.2588 67.8594 43.9317 68.4783 42.765 69.03L41.0821 69.8204V59.2175H58.2321C57.4446 61.6781 55.8638 62.4759 47.0817 66.9348Z" fill="black"/>
    </symbol>
    
    <symbol id="icon-Chevrolet" width="80" height="27" viewBox="0 0 80 27">
        <path d="M79.6828 5.65333H53.0662V0.526667C53.0666 0.457662 53.0534 0.38925 53.0273 0.325371C53.0012 0.261492 52.9627 0.203407 52.9141 0.154457C52.8654 0.105507 52.8076 0.066661 52.7439 0.0401529C52.6802 0.0136447 52.6118 -1.39969e-06 52.5428 1.07683e-10H27.4595C27.3905 -1.39969e-06 27.3222 0.0136447 27.2584 0.0401529C27.1947 0.066661 27.1369 0.105507 27.0882 0.154457C27.0396 0.203407 27.0011 0.261492 26.975 0.325371C26.9489 0.38925 26.9357 0.457662 26.9362 0.526667V5.65333H7.85948C7.56948 5.65333 7.21615 5.88667 7.06948 6.18L0.0661508 19.9C-0.0838492 20.1933 0.0294841 20.4233 0.322817 20.4233H26.9328V25.5567C26.9328 25.8433 27.1662 26.08 27.4562 26.08H52.5395C52.8295 26.08 53.0628 25.8467 53.0628 25.5567V20.4233H72.1395C72.4295 20.4233 72.7828 20.19 72.9328 19.9L79.9328 6.18C80.0828 5.89 79.9695 5.65333 79.6795 5.65333M71.3662 8.97333L67.2195 17.0967H49.7795V22.79H30.2328V17.0967H8.64948L12.7995 8.97333H30.2395V3.28333H49.7862V8.97333H71.3662Z" fill="black"/>
    </symbol>

    <symbol id="icon-Ford" width="72" height="28" viewBox="0 0 72 28">
        <path fill-rule="evenodd" clip-rule="evenodd" d="M35.8922 0.789368C16.3817 0.789368 0.587585 6.87407 0.587585 14.3635C0.587585 21.8564 16.3817 27.9164 35.8922 27.9164C55.4028 27.9164 71.1757 21.8564 71.1757 14.3635C71.1757 6.87054 55.3816 0.789368 35.8922 0.789368ZM35.8922 26.5187C17.1864 26.5187 1.97464 21.1082 1.97464 14.3635C1.97464 7.6223 17.1723 2.16231 35.8922 2.16231C54.6122 2.16231 69.8345 7.64348 69.8345 14.3635C69.8345 21.087 54.6581 26.5223 35.8922 26.5223M49.9993 13.7317C49.1946 13.6435 48.1957 14.3317 47.384 15.3517C46.9746 15.8635 46.5369 16.834 46.4699 17.4058C46.3816 17.9846 46.5369 18.567 46.7452 18.7223C46.9569 18.8882 47.8534 19.3682 49.2722 17.9176C49.8718 17.2655 50.3996 16.5508 50.8463 15.7858L50.5922 15.7188C51.0757 14.8152 50.9769 13.8446 49.9993 13.7317ZM35.8958 3.17172C17.7264 3.17172 3.05464 8.18347 3.05464 14.3599C3.05464 20.5293 17.737 25.5764 35.8958 25.5764C54.0546 25.5764 68.7722 20.554 68.7722 14.3564C68.7722 8.15877 54.044 3.17172 35.8958 3.17172ZM20.5534 20.2929C18.5734 20.2929 16.8123 18.9764 16.7699 16.6223C16.7487 15.1893 17.8817 13.4282 20.0028 12.9023C20.2534 12.9023 20.3417 12.9905 20.3417 13.1352C20.3417 13.227 20.2534 13.3364 20.0452 13.4388C19.4311 13.6717 18.3652 14.8999 18.3652 16.0293C18.3652 16.887 18.8946 17.8364 19.784 18.0376C20.024 18.1046 20.2534 18.0835 20.4864 18.0835C22.6958 18.0835 25.1805 15.5599 27.8628 11.7199C27.4322 11.7411 25.5864 11.9529 25.124 12.4788C24.9123 12.6446 24.7852 12.5458 24.7393 12.3658C24.7393 12.3235 24.8064 12.1541 24.8805 12.0658C25.6075 11.2294 27.7958 11.0494 28.3217 10.9823C30.2805 7.9223 32.7864 5.98112 33.4675 5.83642C33.4534 5.83642 33.4346 5.83289 33.4111 5.82583C31.664 5.41289 30.0687 5.06701 28.8193 5.06701C24.4217 5.06701 22.4664 6.98701 22.5511 8.73759C22.597 9.45406 23.1687 9.91994 24.0017 9.75406C24.9158 9.58818 26.1899 8.71642 26.5075 7.94701C26.5781 7.78818 26.7617 7.75642 26.8252 7.81289C26.9593 7.9223 26.917 8.09171 26.917 8.09171C26.8075 8.99524 25.4346 11.4835 23.0699 11.4835C21.7499 11.4835 20.8605 10.2341 20.8817 9.00583C20.9028 6.71877 23.2005 4.40701 28.8722 4.40701C29.9381 4.40701 31.1487 4.49525 32.4652 4.73172C33.9934 5.01054 37.7946 5.65642 40.8863 5.7023C42.0299 5.7023 43.4805 5.74818 44.6663 5.56818C45.9193 5.35642 45.644 5.31054 46.1416 5.31054C46.5899 5.31054 46.5899 5.50113 46.5899 5.68113C46.5899 6.41524 44.0416 7.83406 41.8746 7.83406C38.6875 7.83406 35.3805 6.37289 33.6652 5.89289C33.7063 5.92979 33.7338 5.97938 33.7434 6.03376C33.753 6.08814 33.7441 6.14416 33.7181 6.19289C33.6179 6.32637 33.5043 6.44936 33.3793 6.55995C32.9275 6.97289 31.3781 8.00348 29.6875 10.8835C31.0499 10.8129 32.6417 10.5376 32.6417 10.5376C32.6417 10.5376 32.5534 10.2341 32.5534 9.97641C32.624 8.98465 33.1922 8.38112 33.9193 8.49406C34.1077 8.52475 34.2792 8.62082 34.4038 8.7654C34.5283 8.90998 34.598 9.09382 34.6005 9.28465C34.5482 9.75574 34.3394 10.1957 34.0075 10.5341C33.7958 10.6929 33.5769 10.8588 33.3017 10.9929C33.3017 11.2505 33.644 11.4517 33.9369 11.487C33.8734 11.7411 33.8946 11.8541 33.7852 11.8294C33.104 11.8294 32.8322 11.1588 32.8322 11.1588C31.9146 11.3282 31.0393 11.4411 29.2322 11.6176C24.7075 19.0646 23.2887 20.2929 20.5181 20.2929H20.5534ZM51.7675 19.0646C52.7451 19.0188 54.5487 17.1235 54.9793 16.6646C55.064 16.5517 55.2299 16.3399 55.3181 16.3399C55.4063 16.3399 55.5934 16.4282 55.5934 16.5764C55.5934 16.6646 55.3816 17.0105 55.2299 17.2223C54.3193 18.3835 52.8122 20.1588 51.1075 20.2046C50.2604 20.2046 49.9428 19.8587 49.8334 19.1882C49.4487 19.534 48.1287 20.1376 46.7769 20.1376C46.3868 20.1497 46.003 20.0372 45.6812 19.8163C45.3594 19.5954 45.1164 19.2777 44.9875 18.9093C44.7498 18.3643 44.7026 17.7551 44.8534 17.1799C44.2393 17.5011 43.6675 17.547 42.8522 17.5258C41.8993 17.5011 41.3028 17.067 41.0063 15.927C39.9087 17.9599 39.8628 18.027 38.7546 20.1588H36.8205L39.3052 15.8846C39.5764 15.4057 39.7762 14.8896 39.8981 14.3529C39.9616 14.0741 39.764 13.8164 39.4675 13.7952C39.1499 13.7952 38.6346 14.1199 38.1263 14.5999C38.1263 14.5999 36.8522 15.9835 35.9169 17.3882C35.0275 18.7293 33.4993 20.2576 31.8405 20.2576C30.6299 20.2576 29.5428 19.587 29.3134 18.2952C29.3134 18.2952 29.1899 18.5952 28.124 19.2199C28.0358 19.2658 27.8064 19.3964 27.7393 19.354C27.5623 19.2065 27.4425 19.0018 27.4005 18.7752C27.464 18.7964 27.6087 18.6835 28.0358 18.3376C28.8828 17.6917 29.0593 17.1764 29.0593 17.1764C29.2711 16.7423 29.6311 16.0505 29.8852 15.5599C30.5664 14.1764 31.7522 12.7576 33.6864 12.6905C34.004 12.6905 34.0922 12.8246 34.1593 12.9482C34.3464 13.0823 34.2793 13.3611 34.2793 13.3611C33.7049 13.4548 33.1551 13.6631 32.6628 13.9735C32.1705 14.284 31.7456 14.6902 31.4134 15.1682C31.0711 15.6835 30.7075 16.5093 30.6405 17.1093C30.5099 18.1505 30.9828 18.8388 31.6852 19.0082C33.0052 19.2199 34.1028 18.2493 34.9605 16.7423C35.1828 16.354 35.3487 15.3376 35.3487 14.7764C35.3328 14.2763 35.1459 13.7967 34.8193 13.4176C34.8193 13.0258 35.0734 12.7682 35.3699 12.7682C35.4581 12.7682 35.5464 12.7682 35.6452 12.8564C36.0934 13.3152 36.3475 14.1976 36.3475 14.8682C36.3475 15.1011 36.3475 15.327 36.3016 15.5599C37.2581 14.3776 38.4687 12.8564 39.404 12.5564C39.5911 12.4682 39.764 12.4682 39.951 12.4682C41.6558 12.4223 41.4263 13.9964 41.4263 13.9964C42.3369 12.9376 42.9758 12.5458 43.8087 12.5917C44.7228 12.6341 45.044 13.2835 45.044 13.7952C45.0193 14.3952 44.5781 15.0905 43.8334 15.1117C43.1734 15.1117 42.7887 14.7905 42.5805 14.187C42.1499 14.3423 41.9416 14.6458 41.8534 15.2458C41.8203 15.415 41.8259 15.5894 41.8697 15.7561C41.9135 15.9228 41.9944 16.0775 42.1065 16.2085C42.2185 16.3395 42.3587 16.4435 42.5165 16.5127C42.6744 16.5819 42.8459 16.6146 43.0181 16.6082C44.271 16.6082 44.8181 16.0505 45.2734 15.6376C46.8228 14.1552 47.691 12.6129 49.9216 12.6376C51.2628 12.6552 51.6016 13.7388 51.8346 14.2082L54.7675 9.17524H56.571L51.7004 17.9388C51.6122 18.1258 51.3828 18.4717 51.404 18.7399C51.4499 19.1776 52.0004 19.0646 51.7922 19.0646H51.7675ZM33.8064 10.1246C33.9405 9.99053 34.1699 9.56347 34.124 9.28465C34.1064 9.15053 34.0393 8.98465 33.8769 9.00583C33.5346 9.07641 33.3228 9.2423 33.2381 9.58818C33.1441 9.88202 33.1441 10.1979 33.2381 10.4917C33.2381 10.4917 33.4569 10.5129 33.8064 10.1246Z" fill="black"/>
    </symbol>

    <symbol id="icon-Honda" width="86" height="70" viewBox="0 0 86 70">
        <path d="M85.0059 17.247C83.8411 5.88936 76.2882 3.49995 69.6388 2.40937C66.3 1.84466 60.3565 1.35055 56.5235 1.20937C53.1847 0.997606 45.3424 0.891724 42.9883 0.891724C40.6694 0.891724 32.7883 0.997606 29.453 1.20937C25.6554 1.35055 19.6765 1.84466 16.3377 2.40937C9.69185 3.53525 2.12833 5.9176 0.970686 17.247C0.688333 20.3423 0.617745 24.387 0.653039 28.7105C0.758922 35.8787 1.35892 40.7317 1.71186 44.1093C1.95892 46.4281 2.9048 53.3564 4.13656 56.9422C5.82362 61.8658 7.3695 63.3058 9.16244 64.7846C12.4695 67.4563 17.8836 68.2999 19.0095 68.5116C25.1259 69.6057 37.5036 69.8104 42.953 69.8104C48.4024 69.8104 60.7765 69.634 66.8965 68.5116C68.0576 68.2999 73.4718 67.4881 76.7435 64.7846C78.5365 63.3058 80.0823 61.8658 81.7694 56.9422C83.0047 53.3564 83.9859 46.4281 84.2329 44.1093C84.5859 40.7317 85.2176 35.8787 85.2882 28.7105C85.4294 24.387 85.3235 20.3423 85.0059 17.247ZM80.8553 36.3058C80.1847 45.3764 79.38 50.7905 78.2188 54.7293C77.1953 58.174 75.9706 60.4575 74.107 62.1128C71.047 64.8905 66.8259 65.4869 64.3659 65.8399C59.0224 66.6516 50.0541 66.8987 42.9883 66.8987C35.9224 66.8987 26.9542 66.6163 21.6107 65.8399C19.1507 65.4869 14.9295 64.8905 11.8695 62.1128C10.0413 60.4575 8.77773 58.1387 7.79303 54.7258C6.63185 50.8258 5.82362 45.3728 5.15656 36.3023C4.76833 30.8564 4.83892 21.994 5.43891 17.2435C6.3495 10.1458 9.86832 6.59172 17.393 5.2576C20.9083 4.62231 25.6518 4.16348 30.1201 3.95172C33.7059 3.70466 39.6494 3.59878 42.953 3.63407C46.2565 3.59878 52.2 3.73995 55.7859 3.95172C60.2859 4.16348 64.9976 4.62231 68.5129 5.2576C76.0729 6.59172 79.5917 10.1811 80.4706 17.247C81.1729 21.994 81.2753 30.8564 80.8553 36.3058ZM62.4988 6.69407C60.5647 15.3835 59.7918 19.3576 58.2071 25.647C56.6965 31.6999 55.5 37.287 53.4953 39.994C51.4235 42.7364 48.6777 43.3364 46.8141 43.5446C45.8294 43.6505 45.1271 43.6858 43.0518 43.7211C41.7846 43.7475 40.517 43.6885 39.2577 43.5446C37.3942 43.3328 34.6165 42.7364 32.58 39.994C30.5401 37.287 29.3789 31.6999 27.8683 25.6505C26.2095 19.3929 25.4754 15.3799 23.5059 6.6976C23.5059 6.6976 21.5718 6.76819 20.693 6.83877C19.5318 6.90936 18.6177 7.01524 17.633 7.15642C18.8436 26.1164 20.0754 46.2587 21.6071 64.0858C24.406 64.4376 27.2219 64.6368 30.0424 64.6822C31.2071 60.214 32.6824 54.0234 34.3024 51.3869C35.6365 49.2411 37.7118 48.9975 38.873 48.8564C40.7012 48.6093 42.2471 48.574 42.9847 48.574C43.6906 48.5387 45.233 48.574 47.0965 48.8564C48.2612 49.0328 50.333 49.2446 51.6671 51.3869C53.3259 54.0234 54.7624 60.2105 55.9235 64.6787C55.9235 64.6787 57.1871 64.6434 60.0353 64.5022C61.4847 64.4387 62.9271 64.2975 64.3624 64.0787C65.9788 45.0552 67.1329 26.2152 68.3365 7.15642C67.3482 7.01524 66.4376 6.90936 65.2765 6.83877C64.4647 6.76819 62.4988 6.69407 62.4988 6.69407Z" fill="black"/>
    </symbol>

    <symbol id="icon-Hyndai" width="86" height="45" viewBox="0 0 86 45">
        <path d="M43.0586 44.1011C19.6693 44.1011 0.70575 34.367 0.70575 22.3493C0.70575 10.3388 19.6693 0.604675 43.0586 0.604675C66.4515 0.604675 85.4115 10.3388 85.4115 22.3493C85.4115 34.367 66.4515 44.1011 43.0586 44.1011ZM27.5363 5.30585C13.7681 8.15761 4.13986 14.6941 4.13986 22.2964C4.13986 26.507 7.0975 30.3929 12.074 33.5058C12.4869 33.7599 12.7587 33.8093 12.9598 33.7987C13.3198 33.7776 13.5246 33.5517 13.6693 33.2835C13.7918 33.0559 13.906 32.824 14.0116 32.5882C15.6351 28.7623 21.3457 15.5305 28.8457 6.55526C28.9832 6.39483 29.1061 6.22237 29.2128 6.03996C29.3751 5.74349 29.3398 5.50702 29.2128 5.36232C29.0081 5.1329 28.4222 5.1329 27.5363 5.30585ZM35.0892 11.4117C30.9492 21.467 38.7845 20.2211 40.9057 19.7517C44.5057 18.9541 47.9433 17.5882 50.6963 16.487C58.5386 13.3494 62.7033 10.2047 64.0833 8.99407C64.2146 8.8823 64.3417 8.76575 64.4645 8.64466C64.6586 8.43996 64.8068 8.22466 64.8068 7.93878C64.8068 7.60937 64.528 7.34702 63.9704 7.15172L63.7445 7.06349C57.7515 5.15408 50.601 4.04232 42.9139 4.04232C42.8539 4.04232 42.7057 4.03526 42.501 4.04232C41.5833 4.07055 40.5598 4.27526 39.7233 4.70938C36.9775 6.13526 35.7845 9.73172 35.0892 11.4117ZM72.448 11.4223C72.3287 11.6521 72.2157 11.8851 72.1092 12.1211C70.4856 15.9399 64.7786 29.1682 57.2786 38.1434C57.1409 38.305 57.018 38.4786 56.9115 38.6623C56.7351 38.9587 56.7739 39.2023 56.9115 39.3434C57.1127 39.5693 57.6986 39.5729 58.5845 39.3999C72.3492 36.5411 81.9774 30.0117 81.9774 22.4058C81.9774 18.1952 79.0268 14.3129 74.0468 11.2C73.6374 10.9423 73.3621 10.8929 73.1645 10.907C72.8009 10.9317 72.5998 11.1541 72.448 11.4223ZM51.028 33.294C55.168 23.2388 47.3292 24.4917 45.2151 24.9576C41.608 25.7517 38.1704 27.1211 35.421 28.2188C27.5751 31.3529 23.4139 34.5082 22.0269 35.7117C21.8598 35.8599 21.7351 35.9776 21.6528 36.0646C21.4516 36.2658 21.3104 36.4811 21.3104 36.7705C21.3104 37.0987 21.5928 37.3705 22.1434 37.5576C22.1857 37.5752 22.3234 37.6352 22.3763 37.6493C28.3622 39.5552 35.5128 40.6705 43.1998 40.6705H43.6163C44.5796 40.6491 45.527 40.4204 46.3939 39.9999C49.1398 38.574 50.3363 34.9776 51.028 33.294Z" fill="black"/>
    </symbol>

    <symbol id="icon-Kia" width="85" height="21" viewBox="0 0 85 21">
        <path d="M49.1399 18.0294C49.1423 18.1941 49.1905 18.2788 49.2846 18.2835C49.3602 18.278 49.432 18.2483 49.4893 18.1988L75.8893 1.06704C76.3353 0.754715 76.8697 0.593875 77.414 0.608219H83.2163C84.1058 0.608219 84.7057 1.20116 84.7057 2.09057V13.1694C84.7057 14.5105 84.4093 15.287 83.2234 15.9964L76.1858 20.2317C76.1156 20.2798 76.0341 20.309 75.9493 20.3164C75.8646 20.3164 75.7799 20.2494 75.7799 20.0058V7.07762C75.7799 6.92585 75.7375 6.82703 75.6352 6.82703C75.5596 6.83257 75.4878 6.86226 75.4305 6.91174L56.1387 19.4447C55.7023 19.7425 55.1848 19.899 54.6564 19.8929H41.8658C40.9693 19.8929 40.3764 19.3 40.3764 18.4035V2.43645C40.3764 2.31998 40.3235 2.21057 40.2211 2.21057C40.1468 2.21684 40.0764 2.24649 40.0199 2.29527L27.2894 9.92938C27.1623 10.0141 27.127 10.0741 27.127 10.1341C27.127 10.1835 27.1553 10.2364 27.24 10.3282L36.3352 19.4164C36.4552 19.5364 36.5399 19.6282 36.5399 19.7305C36.5399 19.8152 36.4023 19.8823 36.2435 19.8823H28.0235C27.3776 19.8823 26.88 19.7905 26.5305 19.4411L21.0176 13.9353C20.9963 13.9107 20.9704 13.8906 20.9413 13.876C20.9123 13.8615 20.8806 13.8528 20.8482 13.8506C20.7881 13.8535 20.7298 13.8717 20.6788 13.9035L11.467 19.4447C11.0266 19.7405 10.5045 19.8911 9.9741 19.8752H1.5C0.59294 19.8823 0 19.2823 0 18.3964V7.52586C0 6.18468 0.29647 5.40821 1.48941 4.70233L8.57646 0.442337C8.63124 0.406914 8.69477 0.387364 8.75999 0.385864C8.87293 0.385864 8.9294 0.491748 8.9294 0.738806V15.2941C8.9294 15.4458 8.96469 15.5164 9.0741 15.5164C9.15033 15.5051 9.22285 15.4761 9.28587 15.4317L33.2011 1.03528C33.6645 0.722484 34.2169 0.568877 34.7752 0.59763H47.6505C48.5399 0.59763 49.1399 1.19057 49.1399 2.07998L49.1329 18.0258L49.1399 18.0294Z" fill="black"/>
    </symbol>

    <symbol id="icon-Lada" width="85" height="34" viewBox="0 0 85 34">
        <path d="M42.4631 0.807007C21.6113 0.807007 4.27489 6.69759 0.780777 14.4517C0.351512 15.3703 0.125202 16.3707 0.117249 17.3846C0.117249 18.0658 0.216072 19.1776 0.918424 20.5434C4.72312 28.1528 21.8831 33.8987 42.4772 33.8987C65.8666 33.8987 84.823 26.487 84.823 17.3529C84.823 8.21523 65.8524 0.807007 42.4631 0.807007ZM39.3219 4.31171C40.8042 5.66347 39.8866 8.607 37.056 12.6693C33.9007 17.1729 30.8725 19.6434 27.276 20.5505L35.0937 3.53171H35.129C37.1266 3.44347 38.4784 3.54936 39.3219 4.30818V4.31171ZM57.0642 20.8999C56.8348 20.7587 56.9054 20.4093 57.1701 20.3564L60.6995 19.647C60.742 19.6379 60.7813 19.6178 60.8135 19.5887C60.8457 19.5595 60.8697 19.5224 60.883 19.4811L61.4477 17.8082C61.5007 17.6529 61.3842 17.5011 61.2254 17.4905L54.6395 17.127C54.4151 17.1146 54.1926 17.1739 54.0042 17.2964L51.3642 19.047C51.1375 19.1931 50.9594 19.4033 50.8525 19.6509C50.7457 19.8986 50.7149 20.1724 50.7642 20.4376C51.5019 24.2846 50.0513 26.3811 42.456 27.2917C31.4196 28.6081 23.1819 27.2917 21.7454 27.0305C21.5801 27.003 21.4104 27.0298 21.2615 27.1067C21.1127 27.1837 20.9927 27.3068 20.9196 27.4576L20.1678 29.0917C12.3713 26.7728 6.96077 23.2576 5.65489 19.234C5.65489 19.107 5.36901 18.4364 5.36901 17.3458C5.36901 10.6646 16.6137 5.02818 31.9948 3.25641H32.0513C32.0513 3.25641 24.1737 20.4199 22.8325 23.3317C22.8129 23.3786 22.805 23.4296 22.8097 23.4802C22.8143 23.5308 22.8314 23.5795 22.8592 23.622C22.8871 23.6645 22.925 23.6995 22.9696 23.724C23.0141 23.7485 23.064 23.7616 23.1149 23.7623H23.5525C28.176 23.9176 33.7596 24.0834 40.7407 22.3646C48.1595 20.5364 53.7572 15.2882 55.903 11.4693C58.0772 7.59053 56.8313 4.61171 56.5913 3.59171C70.2783 5.69523 79.0348 10.9858 79.2254 17.1446C79.1759 18.4011 78.8371 19.6293 78.2265 20.7411C75.6571 25.0258 68.3583 28.5764 58.6383 30.4823C62.4642 26.2893 59.4713 22.4705 57.0642 20.9105V20.8999Z" fill="black"/>
    </symbol>

    <symbol id="icon-Lamborgini" width="73" height="85" viewBox="0 0 73 85">
        <path d="M72.5591 48.7976C72.4461 48.8682 71.7402 49.1999 71.5426 49.2776C70.1096 49.9129 68.8179 49.8141 67.3779 48.967C66.3403 48.3599 65.3802 47.0188 65.0061 46.5529C64.7097 46.1788 64.3497 45.6917 63.8344 45.2329C62.8744 44.3717 61.5826 43.807 59.345 43.8494C59.1652 43.8514 58.9879 43.8077 58.8297 43.7223C56.5709 42.5294 52.6673 41.0682 48.9473 41.2517C48.2062 41.3082 48.1003 40.7717 47.8532 40.1717C47.4585 39.0044 46.9127 37.8938 46.2297 36.8682C45.6368 36.0282 45.3826 36.0211 44.8956 35.887C44.3591 35.7388 43.7662 35.6753 43.4132 35.0541C43.3709 34.9764 43.1944 34.6447 43.3921 34.4117C43.8862 33.8329 45.2556 33.0423 43.1944 31.8776C41.9379 31.1717 42.5026 30.7129 42.7074 30.607C43.1387 30.4032 43.6262 30.351 44.0909 30.4588C44.8755 30.6442 45.573 31.0926 46.0673 31.7294C46.7379 32.5129 49.0038 36.1906 50.3803 38.9788C50.4015 39.0141 50.4297 39.2117 50.6838 39.24C51.065 39.2753 51.7285 39.2753 51.8626 39.2894C52.0744 39.3035 52.0744 39.1341 52.0532 39.0635C50.105 32.5835 47.8532 24.5082 43.9497 18.8965C43.8791 18.7341 43.9426 18.5647 44.1897 18.5859C47.6768 18.9388 48.6932 23.9153 50.7403 27.1765C53.3662 31.3764 54.905 29.7317 55.1591 26.8941C55.3285 24.9176 54.8062 22.4047 53.4297 20.9929C53.105 20.5906 52.5191 20.0894 52.2791 19.7929C52.1944 19.68 52.1803 19.5035 52.4132 19.44C52.5507 19.4165 52.6905 19.4094 52.8297 19.4188C54.4462 19.5388 56.6838 20.8447 57.6297 22.2988C59.5567 25.2847 59.4156 26.887 59.1473 27.9459C58.6956 29.7529 57.8485 30.7906 58.9003 33.6564C60.9756 39.3176 60.432 38.1317 59.2532 41.6964C59.1473 41.9647 59.3167 42.1694 59.5497 42.1482C62.2673 41.8941 63.0932 42.5153 63.6791 42.8258C63.7426 42.8611 63.792 42.9105 63.8344 42.8964C63.9403 42.8611 63.9755 42.727 63.9897 42.5505C64.2155 41.0258 63.8979 40.3764 63.552 39.48C63.3403 38.9506 63.1144 38.3506 63.0367 37.7717C62.9357 37.1859 63.0222 36.5832 63.2838 36.0494C63.7461 35.0823 63.8485 33.9776 63.5803 32.9364C62.8956 29.9153 60.4179 24.9459 58.8367 22.08C58.3803 21.2141 57.9191 20.3506 57.4532 19.4894C57.3403 19.2776 57.3826 19.0376 57.4744 18.84L57.665 18.36C58.0461 17.3929 58.2438 16.6659 58.3567 15.8188C58.7238 13.1153 58.0109 11.1882 56.0556 9.57883C54.2344 8.08237 51.0015 7.41884 46.6885 7.65884L45.7709 7.71531C41.7191 7.94825 37.1168 8.20943 33.6509 7.92707C30.298 7.64472 28.3427 7.11531 27.665 6.30355C27.557 6.17744 27.4771 6.02969 27.4309 5.87021C27.3846 5.71072 27.373 5.54319 27.3968 5.37884C27.4541 4.98221 27.5913 4.60132 27.7999 4.25918C28.0086 3.91705 28.2845 3.62077 28.6109 3.38826C29.2109 2.92943 29.9168 2.68238 30.425 2.75296C31.3215 2.79532 32.3168 3.30355 33.4603 3.88943C34.4838 4.41884 35.6485 5.01884 37.0038 5.40002C38.0931 5.72532 39.2276 5.8731 40.3638 5.83766C41.3874 5.79531 42.3968 5.58355 43.3497 5.20237C43.6443 5.08864 43.9203 4.93162 44.1685 4.73649C44.2391 4.68002 44.2603 4.56708 44.1826 4.45414C44.1332 4.39767 44.0768 4.39767 43.865 4.39767C42.6764 4.38901 41.4925 4.24694 40.3356 3.97414C39.4321 3.74826 39.3474 3.53649 39.3615 3.45179C39.3827 3.25414 39.8556 3.07061 40.3991 3.04943C43.0532 2.92943 45.0862 3.07061 46.4344 3.16943C47.0015 3.22826 47.5732 3.24708 48.1497 3.2259C48.2273 3.21885 48.2556 3.16943 48.2626 3.14826C48.2693 3.12311 48.2688 3.09661 48.2613 3.0717C48.2539 3.04679 48.2397 3.02443 48.2203 3.00708C47.2885 2.23061 44.2462 1.06591 40.7732 0.451791C35.1897 -0.536443 31.4485 0.27532 29.2956 1.12944C28.3951 1.4827 27.5472 1.95771 26.7756 2.5412C25.6933 3.38355 25.0956 4.28943 24.9827 5.25884C24.8415 6.54355 25.7733 8.20943 31.0533 8.82354C36.6509 9.47295 41.8815 9.38119 46.4909 9.30354L47.9097 9.27531C50.832 9.23295 53.3026 9.93884 54.3685 11.1177C55.3885 12.3177 55.7556 13.9341 55.3567 15.4518C55.2485 15.8588 55.0838 16.24 54.8626 16.5953C54.5309 17.0541 54.1567 17.1882 53.4862 17.0118C51.3262 16.44 47.472 15.1765 45.6085 14.5412C43.9426 13.9765 42.6297 13.5388 41.5144 13.2635C38.2109 12.4518 37.1803 12.9882 34.9568 14.3929C34.4203 14.7318 33.8768 15.0988 33.2485 15.5294C32.3309 16.1506 31.3074 16.8565 29.9309 17.7176C28.9238 18.3247 27.9027 18.9059 26.8674 19.4612C25.6956 20.0965 24.4886 20.7671 23.3027 21.48C19.505 23.7106 18.898 26.7035 18.1921 30.1623C17.698 32.6188 17.1333 35.4 15.2556 38.2235C15.0509 38.527 13.4203 40.5035 13.0815 41.0611C11.7898 43.1294 11.105 44.9153 11.3733 47.9082C11.585 50.1529 10.8086 52.1011 10.0674 53.9858C9.48858 55.4682 8.93799 56.8799 8.84623 58.3764C8.77564 59.3082 8.81093 60.1764 8.84623 61.0164C8.89564 62.407 8.91682 63.7976 8.49329 64.9976C8.16858 65.9152 7.33564 66.8329 7.01094 67.7223C6.55355 69.1023 6.31769 70.5461 6.31211 71.9999C6.29094 73.2705 5.35212 74.1952 4.35682 75.1764C3.48153 76.0446 2.56388 76.9552 2.23212 78.1411C2.18271 78.2964 2.16153 78.4164 2.098 78.5081C2.0133 78.6493 1.88624 78.734 1.70977 78.8611C1.18752 79.2207 0.776655 79.7196 0.523888 80.3011C0.185065 81.194 0.209771 82.1822 0.594476 83.054C0.650946 83.1528 0.799181 83.3928 1.02506 83.4211C1.18271 83.4352 1.33565 83.3528 1.48389 83.174C1.48389 83.174 2.458 82.0517 2.83212 81.7199C2.88279 81.6722 2.94831 81.6434 3.0177 81.6382C3.0871 81.6331 3.15615 81.652 3.21329 81.6917C3.32624 81.7693 3.34741 81.9034 3.28388 82.0446C3.24153 82.1293 2.65565 83.174 2.31683 84.0493L2.30977 84.0775C2.26036 84.1975 2.20389 84.3599 2.28859 84.4799C2.36153 84.607 2.56153 84.6775 2.88859 84.6917C3.02977 84.7034 3.17094 84.7081 3.31212 84.7058C5.10506 84.7058 6.05094 84.2258 6.538 83.8093C6.66302 83.6859 6.75941 83.5365 6.82035 83.3717L6.89094 83.2305C7.24388 82.2705 7.48388 81.1552 7.51917 80.3223C7.51917 79.9693 7.61799 79.8705 7.85799 79.6305C8.80387 78.6705 8.80387 77.414 8.80387 76.1928C8.80387 75.0634 8.80387 73.9058 9.54505 72.9952C11.5568 70.7364 12.6015 68.1105 13.6109 65.5693C14.6556 62.9435 15.7286 60.2258 17.8744 57.967C18.418 57.4093 18.9403 57.1058 19.2862 57.1623C19.4627 57.1905 19.5992 57.3011 19.6956 57.4941C20.1544 58.3411 20.0133 59.4776 19.8791 60.5788C19.7309 61.8282 19.5897 62.9999 20.2462 63.7693C20.6909 64.3411 20.8109 64.9482 20.5921 65.5129C20.3097 66.4164 19.4486 69.1552 17.4086 70.3693C17.1416 70.5448 16.8869 70.7382 16.6462 70.9481C16.5555 71.0474 16.4794 71.1591 16.4203 71.2799C16.3179 71.5068 16.1658 71.7077 15.9751 71.8678C15.7845 72.0279 15.5603 72.143 15.3192 72.2046C14.5678 72.3841 13.9003 72.815 13.4274 73.4258C12.6509 74.594 12.3192 76.0023 12.4956 77.3928C12.5309 77.6046 12.6015 77.8799 12.8062 78.1481C12.9286 78.3176 13.065 78.414 13.2156 78.4376C13.2781 78.4462 13.3417 78.4419 13.4024 78.4249C13.4631 78.4079 13.5197 78.3786 13.5686 78.3387C13.7307 78.1973 13.8796 78.0414 14.0133 77.8728C14.2956 77.5552 14.6415 77.1528 15.0721 76.8281C15.2133 76.7223 15.3545 76.7505 15.4392 76.807C15.5097 76.8634 15.5521 76.9481 15.5239 77.0187C15.4338 77.2339 15.3227 77.4396 15.1921 77.6328C14.9803 77.9646 14.7192 78.374 14.5145 78.8611C14.458 78.9717 14.4509 79.0705 14.4933 79.1575C14.5497 79.2987 14.705 79.3552 14.7403 79.3693C16.0462 79.7858 17.9874 79.2917 19.0815 78.2681C19.3573 77.9992 19.5719 77.674 19.7108 77.3147C19.8496 76.9553 19.9095 76.5703 19.8862 76.1858C19.9025 75.885 20.0251 75.5998 20.2321 75.3811C20.9944 74.7246 21.3121 73.7011 21.6439 72.614L21.898 71.8305C22.2439 70.7117 22.9109 69.7129 23.8109 68.9646C25.2438 67.6235 25.8933 66.3529 26.3027 65.5764C26.7191 64.7364 26.8109 64.2705 27.1144 63.7835C27.7144 62.8376 29.7333 62.654 30.4815 63.0988C30.7897 63.2823 30.858 63.534 30.6862 63.854C30.5733 64.0587 29.5074 65.7811 29.0062 66.9599C28.7591 67.5387 28.2015 67.7576 27.8768 67.9482C25.8721 69.1199 25.505 71.3223 25.4486 72.2258C25.4274 72.5081 25.4556 72.8823 25.6038 73.094C25.6401 73.1486 25.6869 73.1955 25.7414 73.2318C25.7959 73.2682 25.8571 73.2933 25.9215 73.3058C25.9873 73.3153 26.0543 73.3115 26.1186 73.2945C26.1829 73.2775 26.2431 73.2478 26.2956 73.207C26.4086 73.1152 27.4956 72.0211 27.6227 71.9081C27.8062 71.7529 27.9615 71.7811 28.0462 71.8517C28.1238 71.9223 28.1591 72.0705 28.0462 72.2399C27.905 72.4587 27.1497 73.5881 27.2415 73.8352C27.3827 74.2517 27.8133 74.2446 28.2368 74.2446C31.6744 73.9623 32.8885 71.5128 32.8885 71.5128C32.9732 71.3717 33.0721 71.1811 33.0156 70.6729C32.9168 69.7552 32.705 66.5788 34.5403 64.6023C35.0838 63.9952 35.4085 64.4046 35.5285 64.6729C35.7544 65.167 36.0791 66.007 36.2697 66.4305C36.665 67.327 36.9332 67.9834 37.3991 68.8729C38.1615 70.3693 39.3262 70.574 40.7591 70.3976C42.6156 70.1646 43.8932 70.3129 45.1356 70.4329C46.1944 70.5246 46.7803 70.5952 47.5638 69.8823C47.9873 69.494 48.7991 68.7882 49.3426 68.0117C49.6956 67.5246 49.7944 67.214 49.7097 66.4587C49.4556 62.6399 51.4391 59.3223 55.0179 57.5858C55.5544 57.367 56.1473 57.4305 56.5144 57.9246C57.3191 59.1105 59.1826 62.1599 59.1826 64.7505C59.1565 65.0346 59.0875 65.313 58.9779 65.5764C58.7238 66.2823 58.4132 67.1646 58.992 68.3646C59.0344 69.4023 58.6461 70.214 58.3073 70.934C57.8203 71.9505 57.4391 72.7552 58.7661 73.5458C59.2673 73.8281 59.7967 74.0399 60.3544 74.1811C60.4039 74.1771 60.452 74.1626 60.4956 74.1387C60.5175 74.126 60.5364 74.1087 60.551 74.088C60.5656 74.0673 60.5756 74.0436 60.5803 74.0187C60.6156 73.7152 60.6508 72.6776 60.7073 72.4376C60.7285 72.3387 60.7779 72.2258 60.8908 72.2117C60.9967 72.2117 61.1026 72.2893 61.1308 72.374C61.2367 72.6282 61.505 73.6446 61.5826 73.7999C61.6438 73.9411 61.7238 74.0305 61.8226 74.0681C62.352 74.2164 63.0791 73.3058 63.3473 72.8328C63.8132 71.8658 63.6226 70.4329 62.8603 69.1764C62.7676 69.0057 62.7236 68.8128 62.7332 68.6187C62.9604 67.8497 62.9104 67.0253 62.592 66.2893C62.4408 65.8984 62.3365 65.4908 62.2814 65.0752C62.0697 63.2823 63.1779 57.5929 63.2767 57.014C63.4673 55.9552 63.6226 55.1999 63.6861 54.4235C63.7314 53.6219 63.4573 52.8351 62.9238 52.2352C62.4438 51.7199 61.865 51.247 61.3003 50.7952C60.8363 50.4296 60.3911 50.0409 59.9661 49.6305C59.5059 49.1334 59.223 48.4981 59.1614 47.8235C59.1614 47.7529 59.1756 47.7058 59.2038 47.6823L59.2956 47.6611C60.1426 47.7247 60.8273 48.2823 61.6814 49.0023C62.4579 49.6376 63.3261 50.3576 64.5403 50.8941C66.9544 51.967 69.2414 51.8117 71.5426 50.4141C72.5167 49.7223 72.8202 49.1223 72.8697 49.0447C72.9332 48.9388 72.8414 48.6352 72.5591 48.7976ZM19.1309 39.2611C19.2721 38.1458 20.0909 36.967 20.4509 35.5764C20.9662 34.0094 21.1074 31.2706 21.3897 29.0965C21.5309 28.0094 21.9403 27.5576 22.7239 27.4588C23.2391 27.4094 23.7827 27.8612 24.058 29.3929C25.018 35.6541 26.8956 36.5223 27.9897 38.1811L28.0462 38.2729C28.3285 38.7953 28.4133 39.2753 27.9756 39.6282C27.7215 39.84 26.8603 40.1435 25.4062 39.2611C23.6556 38.2094 23.3944 37.0729 20.4933 39.3953C20.4933 39.3953 20.105 39.6917 19.738 39.7764C19.4203 39.847 19.0744 39.727 19.1309 39.2611ZM34.3074 62.2376C34.2015 62.3082 34.0815 62.2588 33.9121 62.1529C32.7615 61.4117 29.5709 60.8329 26.8815 61.9129C24.1074 63.0211 21.5733 64.5952 21.4039 61.8493C21.3686 59.4211 21.8839 58.3623 21.0368 56.9223L20.9662 56.8093C20.8956 56.6964 20.9803 56.6682 21.0086 56.6682C24.898 56.3646 25.9427 55.1505 26.1827 54.727C26.2321 54.6282 26.1686 54.5294 26.0697 54.5152C25.1733 54.4164 20.7121 54.2823 18.9262 54.5435C15.7709 55.0023 13.6533 59.7458 13.2439 60.1976C12.7709 60.7129 12.1709 60.3176 12.1709 59.8446C12.1709 59.054 12.6439 55.207 12.9474 53.8729C13.4415 51.7623 14.1192 50.2023 16.1803 49.8776C17.6203 49.6588 21.1639 49.2847 20.9239 48.3247C20.7582 47.7491 20.6541 47.1575 20.6133 46.56C20.6133 46.0941 20.8533 45.9952 21.3262 46.1082C21.6791 46.1788 22.145 46.3905 22.7521 46.5317C27.1991 47.5835 29.4862 46.7435 32.1403 45.5647L33.2627 45.0564C33.3732 44.9974 33.4997 44.975 33.6238 44.9924C33.7479 45.0097 33.8633 45.0659 33.9535 45.153C34.0437 45.24 34.1039 45.3534 34.1257 45.4768C34.1474 45.6002 34.1295 45.7274 34.0744 45.84C33.9332 46.1435 33.7427 46.2847 33.3332 46.6729C32.458 47.52 29.1897 50.2023 31.1591 54.7341C32.6909 58.2635 33.1356 59.1811 34.2297 61.5882C34.4062 61.9835 34.4344 62.1529 34.3003 62.2376H34.3074ZM42.5873 68.3505C42.3685 68.6893 42.0297 68.9293 41.3874 68.9293C40.5826 68.9293 40.0179 68.6893 39.6791 68.3293C39.3869 68.0051 39.1783 67.6144 39.0712 67.1913C38.9642 66.7681 38.9621 66.3253 39.065 65.9011C39.1709 65.4776 39.4179 65.2023 39.7003 65.1246C39.8132 65.0823 39.8768 65.0964 39.9403 65.174C40.0603 65.3646 40.4909 66.0493 40.5897 66.1905C40.7199 66.3599 40.8929 66.4915 41.0909 66.5717C41.4156 66.7058 41.8321 66.8187 42.0509 66.9176C42.7215 67.207 42.8768 67.8987 42.5873 68.3505ZM55.4273 55.8564C55.3426 55.9976 55.265 56.0188 55.152 56.0682C51.1215 57.5929 47.9097 61.7152 48.4956 66.6564C48.5027 66.8149 48.4782 66.9733 48.4237 67.1223C48.3692 67.2714 48.2857 67.4081 48.1779 67.5246C48.1779 67.5246 47.3309 68.3858 46.8015 68.7529C46.6179 68.8799 46.4132 68.9787 45.9403 68.9505L44.1403 68.8376C43.8579 68.7882 43.9779 68.5411 43.9991 68.4846C44.0231 68.4276 44.042 68.3685 44.0556 68.3082C44.2109 67.567 44.0979 66.5293 43.0532 66.1411C42.905 66.0564 42.9968 65.9152 43.0179 65.8729C43.4626 64.7646 44.0273 63.4023 44.4721 61.4893C44.7897 60.3846 44.5532 59.1952 43.8368 58.2917L43.2015 57.4446C43.0179 57.2399 43.0673 57.0211 43.3215 56.9364L44.2179 56.7035C44.4297 56.6329 44.4156 56.3011 44.2038 56.2446L43.745 56.1035C43.372 55.9288 43.058 55.6492 42.8415 55.2988C42.6697 55.0603 42.5495 54.7886 42.4885 54.5011L42.4391 54.2399C42.4321 54.1058 42.2273 54.0988 42.1285 54.1976C41.7746 54.5329 41.5427 54.9769 41.4698 55.459C41.3969 55.9411 41.4872 56.4338 41.7262 56.8588C42.4532 58.0729 42.425 57.9529 43.0674 58.8705C43.2791 59.167 43.4132 59.4141 43.4838 59.7176C43.5862 60.4588 43.5121 61.2176 43.2721 61.927L42.5379 64.1576C42.0932 65.1458 41.5991 64.9129 41.3238 64.7223C40.9568 64.4823 40.6179 63.8611 40.4415 63.1976C40.4415 63.1976 39.9332 61.3411 39.9474 58.8635C39.9191 58.567 39.7144 58.0799 39.065 58.5105L37.3356 59.9364C37.0956 60.0705 36.6721 59.9999 36.7568 59.4352C36.7568 59.4352 37.9991 53.8941 39.3332 50.7741C40.3356 48.2329 39.2203 46.8 37.8932 45.2258C35.7121 42.4447 35.225 38.7106 40.2932 40.7576C41.6556 41.3788 42.1426 40.5741 43.8226 40.4258C45.0226 40.327 45.4179 40.8141 45.5168 41.0188C45.5936 41.1735 45.6415 41.3409 45.6579 41.5129C45.6579 41.5553 45.6438 41.5835 45.5873 41.5835C42.7497 41.7529 39.3615 44.1105 41.9874 47.8164C44.5497 51.4447 51.6226 52.6588 54.785 49.1999C54.8273 49.1576 54.8344 49.0517 54.7709 49.0023C54.7502 48.9812 54.7234 48.9671 54.6942 48.962C54.6651 48.957 54.6351 48.9612 54.6085 48.9741C53.9741 49.2251 53.3169 49.4142 52.6462 49.5388C51.1356 49.7858 47.9379 49.6094 46.4344 47.88C45.5662 46.8917 45.5873 45.7552 47.0485 45.5788C47.8603 45.5152 48.2626 45.6635 48.6156 45.6705C49.5262 45.6564 49.7097 44.7529 49.5262 44.3294C49.2888 43.8259 48.9356 43.3856 48.4956 43.0447C48.0226 42.7129 48.2838 42.36 48.5873 42.367C51.5097 42.5364 54.305 43.0447 55.3638 46.5529C55.4062 46.687 55.4767 47.1317 55.5897 47.2941C55.8156 47.6329 56.2038 47.887 56.6414 48.2611C57.7003 49.1858 58.6532 50.8376 55.4273 55.8564ZM59.225 53.6823C59.7403 52.6094 60.4391 53.3294 60.7779 54.5082C61.2014 56.0117 61.2579 58.4188 61.0744 59.6611C60.8485 61.2846 60.0861 60.9599 59.6767 60.3811C59.0273 59.4705 58.3356 58.2635 57.8414 57.4305L57.8061 57.3529C57.5803 56.8799 57.545 56.5058 57.785 56.167C58.025 55.7929 58.985 54.1764 59.225 53.6823Z" fill="black"/>
    </symbol>

    <symbol id="icon-Mercedes-benz" width="71" height="71" viewBox="0 0 71 71">
        <path fill-rule="evenodd" clip-rule="evenodd" d="M35.4105 0.0588379C15.9176 0.0588379 0.116455 15.86 0.116455 35.3529C0.116455 54.8458 15.9176 70.647 35.4105 70.647C54.9034 70.647 70.7046 54.8458 70.7046 35.3529C70.7046 15.86 54.9034 0.0588379 35.4105 0.0588379ZM6.52586 18.7647C9.41691 13.7464 13.5649 9.56732 18.5615 6.63891C23.5581 3.71049 29.2312 2.13364 35.0223 2.06354L30.4588 32.3106L6.33174 51.8035C3.48512 46.7561 2.00564 41.053 2.03969 35.2583C2.07373 29.4636 3.62012 23.7783 6.52586 18.7647ZM35.5482 68.8117C29.7486 68.8462 24.0408 67.363 18.9917 64.5094C13.9426 61.6558 9.7278 57.531 6.76586 52.5446L35.4246 40.6823L64.1893 52.3646C61.2566 57.359 57.0727 61.5027 52.0501 64.3869C47.0276 67.271 41.3399 68.7961 35.5482 68.8117ZM40.2282 32.7129L35.8764 2.06354C41.6424 2.1509 47.2872 3.73174 52.2599 6.65177C57.2337 9.56714 61.3679 13.7208 64.2599 18.7082C67.1625 23.6881 68.722 29.3365 68.7857 35.1002C68.8495 40.8639 67.4152 46.5453 64.6234 51.5882L40.2282 32.7129Z" fill="black"/>
    </symbol>

    <symbol id="icon-Nissan" width="72" height="61" viewBox="0 0 72 61">
        <path d="M36.2818 0.141174C21.8818 0.141174 9.74065 9.67057 6.21124 22.5882C4.69359 22.7647 3.95242 22.8706 3.31713 23.047C1.30536 23.5058 0.881836 24.2117 0.881836 25.6588V35.4352C0.881836 36.847 2.39948 37.8352 3.4583 38.0117C4.51712 38.2235 5.18771 38.2941 6.28183 38.3999H6.29242C9.94182 51.194 21.9665 60.5646 36.2818 60.5646C50.5935 60.5646 62.6464 51.1658 66.2676 38.3823C67.15 38.307 68.0253 38.1835 68.8935 38.0117C69.9523 37.8352 71.47 36.847 71.47 35.4352V25.6588C71.47 24.2117 71.0464 23.5058 69.0347 23.047C68.4276 22.8811 67.7076 22.7753 66.3311 22.6129L66.317 22.5176C62.7523 9.59998 50.6465 0.141174 36.2818 0.141174ZM36.3171 7.27057C46.4818 7.27057 55.1641 13.4823 58.5523 22.2C58.5523 22.2353 58.5876 22.2705 58.5876 22.2705L58.63 22.2882C51.3065 22.0094 41.8477 21.7058 36.1759 21.7058C30.5818 21.7058 21.3171 22.0023 14.0324 22.2741H14.0465C17.4347 13.5212 26.1171 7.27057 36.3171 7.27057ZM19.6936 26.4388H21.5994C21.7759 26.4388 21.8112 26.5094 21.8112 26.6505V34.0623C21.8112 34.2388 21.7759 34.3094 21.5642 34.3094H19.7642C19.5524 34.3094 19.5171 34.2741 19.5171 34.0623V26.6505C19.5171 26.5094 19.5524 26.4388 19.6936 26.4388ZM26.0112 26.4741H31.6583C31.87 26.4741 31.9406 26.5094 31.9406 26.6858V27.9564C31.9406 28.1329 31.87 28.2035 31.6583 28.1682H26.1171C25.87 28.1682 25.7641 28.2741 25.7289 28.5211V28.8388C25.7289 29.0152 25.8347 29.1564 26.0818 29.1917C26.7171 29.2976 28.7641 29.4388 29.5406 29.5094C30.9171 29.6505 31.9406 29.8976 32.223 31.2035C32.223 31.3094 32.2583 31.6623 32.2583 32.0505C32.2583 32.2976 32.2583 32.6152 32.1877 32.8976C31.9406 34.1329 31.023 34.3799 29.5406 34.3799H23.7171C23.5053 34.3799 23.47 34.3447 23.47 34.1329V32.8976C23.47 32.6858 23.5053 32.6505 23.7171 32.6505H29.6112C29.8583 32.6505 29.9288 32.5799 29.9641 32.4035V31.8741C29.9288 31.7329 29.8936 31.5211 29.5759 31.4858C28.27 31.3917 26.9641 31.2741 25.6583 31.1329C23.9642 30.9564 23.5406 30.2505 23.47 29.6152C23.4347 29.4035 23.4347 29.1211 23.4347 28.8741C23.4347 28.6623 23.4347 28.3447 23.47 28.0976C23.7171 27.0035 24.5289 26.4741 26.0112 26.4741ZM36.0347 26.4741H41.6818C41.8935 26.4741 41.9641 26.5094 41.9641 26.6858V27.9564C41.9641 28.1329 41.8935 28.2035 41.6818 28.1682H36.1406C35.8935 28.1682 35.7877 28.2741 35.7524 28.5211V28.8388C35.7524 29.0152 35.823 29.1564 36.1053 29.1917C36.7406 29.2976 38.7877 29.4388 39.5288 29.5094C40.9053 29.6505 41.9288 29.8976 42.2112 31.2035C42.2112 31.3094 42.2465 31.6623 42.2465 32.0505C42.2465 32.2976 42.2465 32.6152 42.1759 32.8976C41.9288 34.1329 41.0112 34.3799 39.5288 34.3799H33.7406C33.5288 34.3799 33.4935 34.3447 33.4935 34.1329V32.8976C33.4935 32.6858 33.5288 32.6505 33.7406 32.6505H39.6347C39.8818 32.6505 39.9524 32.5799 39.9877 32.4035V31.8741C39.9524 31.7329 39.8818 31.5211 39.5994 31.4858C38.2935 31.3917 36.9877 31.2741 35.6818 31.1329C33.9877 30.9564 33.5994 30.2505 33.4935 29.6152C33.4583 29.4035 33.4583 29.1211 33.4583 28.8741C33.4583 28.6623 33.4583 28.3447 33.4935 28.0976C33.7406 27.0035 34.5524 26.4741 36.0347 26.4741ZM8.61124 26.5094H10.4112C11.7524 26.5094 11.9289 26.4741 12.423 27.18C12.8112 27.8152 15.9524 32.6505 15.9524 32.6505V26.7564C15.9524 26.58 15.9877 26.5094 16.1995 26.5094H17.7524C17.9642 26.5094 17.9995 26.58 17.9995 26.7564V34.1329C17.9995 34.3447 17.9642 34.3799 17.7524 34.3799H15.6348C14.3995 34.3799 14.2936 34.3799 13.87 33.6741C13.023 32.3329 10.4112 28.3447 10.4112 28.3447V34.1329C10.4112 34.3447 10.3759 34.3799 10.1642 34.3799H8.61124C8.39947 34.3799 8.36418 34.3447 8.36418 34.1329V26.7564C8.36418 26.58 8.39947 26.5094 8.61124 26.5094ZM48.07 26.5094C48.4582 26.5094 48.7406 26.5094 48.8465 26.5447C50.1171 26.58 49.9053 26.4388 50.5053 27.7447C50.8229 28.4858 53.0817 33.3211 53.4347 34.1682C53.5406 34.4152 53.47 34.3799 53.1876 34.3799H51.2465C51.1406 34.3799 51.0347 34.3446 50.9994 34.2388C50.9994 34.2035 50.7523 33.6388 50.3994 32.827H45.8465C45.4935 33.6388 45.2112 34.2388 45.2112 34.2388C45.1759 34.3094 45.1053 34.3799 44.9641 34.3799H43.0935C42.8112 34.3799 42.7053 34.3799 42.8818 34.027L42.9171 33.9564C43.7994 32.0152 45.8818 27.3564 45.8818 27.3564C46.3053 26.4741 46.0935 26.5447 47.2935 26.5447C47.6112 26.5094 47.6818 26.5094 48.07 26.5094ZM54.8465 26.5094H56.6465C57.9876 26.5094 58.1641 26.4741 58.6582 27.18C59.0817 27.8152 62.1876 32.6505 62.1876 32.6505V26.7564C62.1876 26.58 62.2229 26.5094 62.4347 26.5094H63.9876C64.1994 26.5094 64.2347 26.58 64.2347 26.7564V34.1329C64.2347 34.3447 64.1994 34.3799 63.9876 34.3799H61.87C60.6347 34.3799 60.5288 34.3799 60.1053 33.6741C59.2229 32.3329 56.6465 28.3447 56.6465 28.3447V34.1329C56.6465 34.3447 56.6112 34.3799 56.3994 34.3799H54.8465C54.6347 34.3799 54.5994 34.3447 54.5994 34.1329V26.7564C54.5994 26.58 54.6347 26.5094 54.8465 26.5094ZM48.1759 28.2741C48.07 28.2741 47.9641 28.2741 47.9288 28.3094C47.8229 28.3094 47.7523 28.3447 47.7171 28.4152C47.7171 28.4505 47.1523 29.7917 46.5523 31.1682H49.6935C49.2347 30.0035 48.7053 28.8388 48.5641 28.4505C48.5288 28.3447 48.4582 28.3094 48.3876 28.3094C48.3523 28.2741 48.2465 28.2741 48.1759 28.2741ZM58.4112 38.834C58.4006 38.8764 58.3406 38.9752 58.3406 39.0035C54.8112 47.474 46.27 53.474 36.2818 53.474C26.223 53.474 17.6465 47.4035 14.1524 38.8623L14.0818 38.8446C20.4842 39.1658 28.7712 39.4976 36.1759 39.4976C43.6406 39.4976 51.9876 39.1623 58.4112 38.8376" fill="black"/>
    </symbol>

    <symbol id="icon-Toyota" width="84" height="59" viewBox="0 0 84 59">
        <path d="M42.0833 0.428955C18.7479 0.428955 0.763428 12.6698 0.763428 29.3529C0.763428 46.0359 18.7513 58.2768 42.0833 58.2768C65.4153 58.2768 83.4032 46.0359 83.4032 29.3529C83.4032 12.6698 65.4187 0.428955 42.0833 0.428955ZM67.3366 14.05C67.3366 17.8819 61.3969 20.8375 51.883 22.019C50.9877 12.865 48.4225 6.83678 45.1238 4.5873C55.2747 5.24015 67.3366 8.94079 67.3366 14.05ZM42.0833 44.9679C38.7777 44.9679 36.0713 39.6458 35.8578 29.3954C37.8457 29.5634 39.9209 29.6485 42.0833 29.6509C44.2457 29.6509 46.3197 29.5658 48.3054 29.3954C48.0953 39.6494 45.3889 44.9679 42.0833 44.9679ZM42.0833 22.5867C40.0494 22.5867 38.1097 22.5228 36.2641 22.3951C37.1628 16.264 39.4319 11.2187 42.0833 11.2187C44.7347 11.2187 47.0004 16.264 47.8991 22.3951C46.0558 22.5205 44.1172 22.5843 42.0833 22.5867ZM39.0463 4.5802C35.7545 6.82614 33.172 12.8579 32.2836 22.019C22.7697 20.8375 16.8265 17.8819 16.8265 14.05C16.8265 8.94079 28.8919 5.21531 39.0463 4.5802ZM7.77748 28.2175C7.77002 24.1717 9.03624 20.2326 11.3861 16.9914C12.3158 22.4802 20.0701 27.2134 31.9496 28.9484V29.3529C31.9496 42.7362 34.9763 51.3616 39.1358 54.083C21.5508 52.944 7.77748 41.7357 7.77748 28.2175ZM45.0446 54.083C49.2007 51.3616 52.2308 42.7362 52.2308 29.3529V28.9448C64.0999 27.2134 71.8715 22.4661 72.7943 16.9878C75.1483 20.2284 76.416 24.1697 76.4063 28.2175C76.3926 41.7357 62.609 52.944 45.0446 54.083Z" fill="black"/>
    </symbol>

    <symbol id="icon-Volkswagen" width="86" height="85" viewBox="0 0 86 85">
        <path d="M49.3718 16.7647C47.2038 16.1753 44.9655 15.8843 42.7189 15.8999C40.4424 15.8999 38.293 16.2035 36.1895 16.7364L42.793 35.2305L49.3718 16.7647ZM68.7517 42.367C68.7517 39.0634 68.2012 35.9152 67.1 32.9929L54.7224 65.8093C58.9663 63.5408 62.5137 60.1611 64.9849 56.0318C67.4561 51.9026 68.7581 47.1792 68.7517 42.367Z" fill="black"/>
        <path d="M55.8235 19.4823L48.1964 40.8141H37.4423L29.7906 19.3765C26.9586 21.0299 24.4634 23.2019 22.4353 25.7788L33.3165 54.4305L37.2941 43.9658H47.7447L51.7223 54.4305L62.7023 25.4223C60.7692 23.0432 58.4324 21.023 55.7988 19.4541" fill="black"/>
        <path d="M42.7188 7.05884C23.5894 7.05884 7.9541 22.9059 7.9541 42.367C7.9541 61.8211 23.5894 77.647 42.7188 77.647C61.8481 77.647 77.4587 61.7717 77.4587 42.367C77.4587 22.9623 61.8764 7.05884 42.7188 7.05884ZM42.7188 73.1505C26.0388 73.1505 12.3835 59.3329 12.3835 42.3917C12.3835 25.4506 26.0105 11.5553 42.7188 11.5553C59.427 11.5553 73.054 25.3976 73.054 42.3917C73.054 59.3858 59.427 73.1505 42.7188 73.1505Z" fill="black"/>
        <path d="M42.4929 49.6058L35.7659 67.3093V67.867C37.9682 68.4976 40.2859 68.8117 42.7188 68.8093C44.9378 68.8176 47.1484 68.5352 49.2941 67.9693L49.22 67.3093L42.4929 49.6058ZM16.6824 42.367C16.6682 47.0862 17.9176 51.7232 20.3008 55.7965C22.6841 59.8698 26.1143 63.2308 30.2353 65.5305L18.1612 33.5788C17.1696 36.4021 16.6671 39.3747 16.6824 42.367Z" fill="black"/>
    </symbol>

</svg>