<svg xmlns="http://www.w3.org/2000/svg" fill="none">

    <symbol id="icon-car" width="142" height="119" viewBox="0 0 142 119">
        <path fill-rule="evenodd" clip-rule="evenodd" d="M47.5625 90.125H37.4281L34.2219 99.7437L32.7406 104.187H14.75V76.25C19.4 77.4594 26.1219 78.4062 35.8438 78.4062C37.7086 78.4062 39.497 77.6654 40.8156 76.3468C42.1342 75.0282 42.875 73.2398 42.875 71.375C42.875 69.5102 42.1342 67.7218 40.8156 66.4031C39.497 65.0845 37.7086 64.3437 35.8438 64.3437C25.7844 64.3437 20.075 63.2187 17.1125 62.3094C16.4627 62.1098 15.8243 61.8751 15.2 61.6062C15.9182 58.5139 17.4942 55.6869 19.7469 53.45C20.4344 52.7625 21.1031 52.05 21.7531 51.3125C36.05 55.3719 53.6562 57.3125 71 57.3125C88.3438 57.3125 105.95 55.3719 120.247 51.3125C120.891 52.0562 121.559 52.7687 122.253 53.45C124.512 55.7187 126.078 58.55 126.8 61.6062C126.387 61.8062 125.75 62.0406 124.888 62.3094C121.925 63.2187 116.216 64.3437 106.156 64.3437C104.291 64.3437 102.503 65.0845 101.184 66.4031C99.8658 67.7218 99.125 69.5102 99.125 71.375C99.125 73.2398 99.8658 75.0282 101.184 76.3468C102.503 77.6654 104.291 78.4062 106.156 78.4062C115.878 78.4062 122.6 77.4594 127.25 76.25V104.187H109.259L107.778 99.7437L104.572 90.125H47.5625ZM112.475 38.825C100.475 41.7312 85.85 43.25 71 43.25C56.15 43.25 41.525 41.7312 29.525 38.825C29.8125 38.125 30.0875 37.4187 30.35 36.7062L34.55 24.9219C36.2375 20.1875 39.8937 17.3656 43.55 16.8312C61.7554 14.2432 80.2353 14.2432 98.4406 16.8312C102.116 17.3656 105.753 20.1875 107.441 24.9219L111.659 36.7062C111.909 37.4187 112.181 38.125 112.475 38.825ZM96.9875 111.837L94.4375 104.187H47.5625L45.0125 111.837C44.3905 113.705 43.1964 115.329 41.5995 116.48C40.0027 117.631 38.084 118.25 36.1156 118.25H10.0625C7.5761 118.25 5.19153 117.262 3.43337 115.504C1.67522 113.746 0.6875 111.361 0.6875 108.875V65.5156C0.6875 57.2656 3.96875 49.3437 9.8 43.5125C11.3108 42.0059 12.6618 40.3471 13.8312 38.5625H7.71875C5.85395 38.5625 4.06552 37.8217 2.74691 36.5031C1.42829 35.1845 0.6875 33.396 0.6875 31.5312C0.6875 29.6664 1.42829 27.878 2.74691 26.5594C4.06552 25.2408 5.85395 24.5 7.71875 24.5H19.775L21.3125 20.1875C24.5281 11.1875 32.075 4.28748 41.5344 2.91873C61.0796 0.13622 80.9204 0.13622 100.466 2.91873C109.925 4.28748 117.472 11.1875 120.688 20.1969L122.225 24.5H134.281C136.146 24.5 137.934 25.2408 139.253 26.5594C140.572 27.878 141.312 29.6664 141.312 31.5312C141.312 33.396 140.572 35.1845 139.253 36.5031C137.934 37.8217 136.146 38.5625 134.281 38.5625H128.178C129.347 40.35 130.688 42 132.2 43.5125C138.034 49.3488 141.312 57.2632 141.312 65.5156V108.875C141.312 111.361 140.325 113.746 138.567 115.504C136.808 117.262 134.424 118.25 131.938 118.25H105.875C103.908 118.248 101.992 117.628 100.397 116.478C98.8017 115.327 97.609 113.704 96.9875 111.837Z" fill="#6B6B6B"/>
    </symbol>

    <symbol id="icon-Delivery" width="141" height="100" viewBox="0 0 141 100">
        <path d="M40.75 100C35.5417 100 31.1146 98.1771 27.4688 94.5312C23.8229 90.8854 22 86.4583 22 81.25H6.375L9.1875 68.75H26.8438C28.6146 66.7708 30.6979 65.2354 33.0938 64.1437C35.4896 63.0521 38.0417 62.5042 40.75 62.5C43.4583 62.4958 46.0104 63.0437 48.4063 64.1437C50.8021 65.2437 52.8854 66.7792 54.6563 68.75H80.75L93.875 12.5H25.4375L26.0625 9.84375C26.6875 6.92708 28.1187 4.55833 30.3562 2.7375C32.5938 0.916668 35.225 0.00416667 38.25 0H109.5L103.719 25H122L140.75 50L134.5 81.25H122C122 86.4583 120.177 90.8854 116.531 94.5312C112.885 98.1771 108.458 100 103.25 100C98.0417 100 93.6146 98.1771 89.9688 94.5312C86.3229 90.8854 84.5 86.4583 84.5 81.25H59.5C59.5 86.4583 57.6771 90.8854 54.0312 94.5312C50.3854 98.1771 45.9583 100 40.75 100ZM96.5312 56.25H126.688L127.312 52.9688L115.75 37.5H100.906L96.5312 56.25ZM93.5625 13.5938L93.875 12.5L80.75 68.75L81.0625 67.6562L86.375 44.8438L93.5625 13.5938ZM0.125 58.2812L3.25 45.7812H37.625L34.5 58.2812H0.125ZM12.625 35.4688L15.75 22.9688H56.375L53.25 35.4688H12.625ZM40.75 87.5C42.5208 87.5 44.0062 86.9 45.2062 85.7C46.4062 84.5 47.0042 83.0167 47 81.25C46.9958 79.4833 46.3958 78 45.2 76.8C44.0042 75.6 42.5208 75 40.75 75C38.9792 75 37.4958 75.6 36.3 76.8C35.1042 78 34.5042 79.4833 34.5 81.25C34.4958 83.0167 35.0958 84.5021 36.3 85.7062C37.5042 86.9104 38.9875 87.5083 40.75 87.5ZM103.25 87.5C105.021 87.5 106.506 86.9 107.706 85.7C108.906 84.5 109.504 83.0167 109.5 81.25C109.496 79.4833 108.896 78 107.7 76.8C106.504 75.6 105.021 75 103.25 75C101.479 75 99.9958 75.6 98.8 76.8C97.6042 78 97.0042 79.4833 97 81.25C96.9958 83.0167 97.5958 84.5021 98.8 85.7062C100.004 86.9104 101.488 87.5083 103.25 87.5Z" fill="#6B6B6B"/>
    </symbol>

    <symbol id="icon-Shield" width="132" height="137" viewBox="0 0 132 137">
        <path fill-rule="evenodd" clip-rule="evenodd" d="M19.1531 35.0812L58.7156 16.0969C60.9898 15.0086 63.4789 14.4437 66 14.4437C68.5211 14.4437 71.0102 15.0086 73.2844 16.0969L112.847 35.0812C114.258 35.7625 115.448 36.8273 116.282 38.1537C117.116 39.4801 117.56 41.0145 117.562 42.5812V47.25C117.562 60.6988 114.177 73.9312 107.721 85.7287C101.264 97.5263 91.9431 107.51 80.6156 114.759L71.3719 120.675C69.7694 121.705 67.9048 122.252 66 122.252C64.0952 122.252 62.2306 121.705 60.6281 120.675L51.3844 114.769C40.0556 107.518 30.7335 97.5333 24.2769 85.734C17.8202 73.9347 14.4365 60.7003 14.4375 47.25V42.5812C14.4375 39.3844 16.275 36.4687 19.1531 35.0812ZM52.6219 3.42186L13.0688 22.4062C9.26895 24.234 6.062 27.0968 3.81651 30.6657C1.57103 34.2346 0.378156 38.3647 0.375 42.5812V47.25C0.374215 63.0589 4.35133 78.6139 11.9401 92.4823C19.5288 106.351 30.4851 118.087 43.8 126.609L53.0438 132.516C56.9101 134.995 61.4068 136.313 66 136.313C70.5932 136.313 75.0899 134.995 78.9563 132.516L88.2 126.609C101.515 118.087 112.471 106.351 120.06 92.4823C127.649 78.6139 131.626 63.0589 131.625 47.25V42.5812C131.625 33.975 126.694 26.1281 118.931 22.4062L79.3687 3.42186C75.1957 1.42229 70.6273 0.384277 66 0.384277C61.3727 0.384277 56.7949 1.42229 52.6219 3.42186ZM70.4062 84.4687C69.7154 85.1124 69.1614 85.8887 68.7771 86.7512C68.3928 87.6137 68.1861 88.5448 68.1694 89.4888C68.1528 90.4329 68.3265 91.3707 68.6801 92.2462C69.0337 93.1217 69.5601 93.917 70.2278 94.5847C70.8954 95.2524 71.6908 95.7788 72.5663 96.1324C73.4418 96.486 74.3796 96.6597 75.3236 96.643C76.2677 96.6264 77.1988 96.4197 78.0613 96.0354C78.9238 95.6511 79.7 95.097 80.3438 94.4062C85.7344 89.025 90.825 81.3 94.5562 73.8281C98.175 66.5906 101.156 58.3312 101.156 51.9375C101.156 50.0727 100.415 48.2843 99.0968 46.9656C97.7782 45.647 95.9898 44.9062 94.125 44.9062C92.2602 44.9062 90.4718 45.647 89.1532 46.9656C87.8345 48.2843 87.0938 50.0727 87.0938 51.9375C87.0938 54.9187 85.3875 60.7219 81.975 67.5469C78.675 74.1375 74.3906 80.475 70.4062 84.4687Z" fill="#6B6B6B"/>
    </symbol>

    <symbol id="icon-Time" width="126" height="126" viewBox="0 0 126 126">
        <path d="M63 0.5C97.5187 0.5 125.5 28.4813 125.5 63C125.5 97.5187 97.5187 125.5 63 125.5C28.4813 125.5 0.5 97.5187 0.5 63C0.5 28.4813 28.4813 0.5 63 0.5ZM63 13C49.7392 13 37.0215 18.2678 27.6447 27.6447C18.2678 37.0215 13 49.7392 13 63C13 76.2608 18.2678 88.9785 27.6447 98.3553C37.0215 107.732 49.7392 113 63 113C76.2608 113 88.9785 107.732 98.3553 98.3553C107.732 88.9785 113 76.2608 113 63C113 49.7392 107.732 37.0215 98.3553 27.6447C88.9785 18.2678 76.2608 13 63 13ZM63 25.5C64.5308 25.5002 66.0084 26.0622 67.1523 27.0795C68.2963 28.0967 69.0271 29.4984 69.2063 31.0187L69.25 31.75V60.4125L86.1687 77.3313C87.2897 78.456 87.9405 79.9652 87.9889 81.5524C88.0374 83.1396 87.4799 84.6857 86.4297 85.8767C85.3795 87.0678 83.9153 87.8144 82.3345 87.965C80.7538 88.1156 79.1749 87.6588 77.9187 86.6875L77.3313 86.1687L58.5813 67.4187C57.6099 66.4465 56.986 65.1813 56.8062 63.8187L56.75 63V31.75C56.75 30.0924 57.4085 28.5027 58.5806 27.3306C59.7527 26.1585 61.3424 25.5 63 25.5Z" fill="#6B6B6B"/>
    </symbol>

</svg>